dummy_motion.mot										
nRows=45										
nColumns=11										
name dummy_motion.mot										
datacolumns 11										
datarows 45										
range 25.01 25.45										
endheader										
time	pelvis_tilt	pelvis_tx	pelvis_ty	hip_flexion_r	knee_angle_r	ankle_angle_r	hip_flexion_l	knee_angle_l	ankle_angle_l	lumbar_extension
25.01	0	0	0	79.98464701	-11.16267219	-35.16693953	79.98464701	-11.16267219	-35.16693953	0
25.02	0	0	0	44.39304725	-36.32491714	26.57659588	44.39304725	-36.32491714	26.57659588	0
25.03	0	0	0	-22.44362776	-73.83747539	5.826323766	-22.44362776	-73.83747539	5.826323766	0
25.04	0	0	0	53.00796253	-33.39187572	21.97150897	53.00796253	-33.39187572	21.97150897	0
25.05	0	0	0	-63.02750389	-43.44510834	-10.89913778	-63.02750389	-43.44510834	-10.89913778	0
25.06	0	0	0	-15.80987605	-27.64658861	-3.784286041	-15.80987605	-27.64658861	-3.784286041	0
25.07	0	0	0	18.70281993	6.972978	-13.57474451	18.70281993	6.972978	-13.57474451	0
25.08	0	0	0	26.60887418	6.629798337	15.94648211	26.60887418	6.629798337	15.94648211	0
25.09	0	0	0	-15.0202638	9.855766788	-37.33190964	-15.0202638	9.855766788	-37.33190964	0
25.1	0	0	0	28.32965543	-33.78253181	-5.846656862	28.32965543	-33.78253181	-5.846656862	0
25.11	0	0	0	21.63358244	-15.01963297	2.619825221	21.63358244	-15.01963297	2.619825221	0
25.12	0	0	0	-56.74087201	-66.87488899	-9.684864514	-56.74087201	-66.87488899	-9.684864514	0
25.13	0	0	0	54.23324489	-63.18414758	21.13546867	54.23324489	-63.18414758	21.13546867	0
25.14	0	0	0	79.87171665	-58.60659586	-26.58113869	79.87171665	-58.60659586	-26.58113869	0
25.15	0	0	0	67.50352302	2.766230518	-10.58608638	67.50352302	2.766230518	-10.58608638	0
25.16	0	0	0	23.69145013	-72.65056819	32.65738298	23.69145013	-72.65056819	32.65738298	0
25.17	0	0	0	62.76388307	-17.36769907	12.24546439	62.76388307	-17.36769907	12.24546439	0
25.18	0	0	0	-66.79028761	-63.01850811	-14.47773647	-66.79028761	-63.01850811	-14.47773647	0
25.19	0	0	0	4.084266837	-6.463676385	28.94851697	4.084266837	-6.463676385	28.94851697	0
25.2	0	0	0	74.639816	-50.80570078	-28.26319531	74.639816	-50.80570078	-28.26319531	0
25.21	0	0	0	70.69200917	-7.963841353	22.71506127	70.69200917	-7.963841353	22.71506127	0
25.22	0	0	0	11.99376012	-6.565540078	-19.19554235	11.99376012	-6.565540078	-19.19554235	0
25.23	0	0	0	39.03829185	-51.46599376	10.21889538	39.03829185	-51.46599376	10.21889538	0
25.24	0	0	0	-2.587444693	-61.70461896	-27.82016532	-2.587444693	-61.70461896	-27.82016532	0
25.25	0	0	0	-15.15117506	-65.4668814	-4.320546081	-15.15117506	-65.4668814	-4.320546081	0
25.26	0	0	0	24.61275883	2.022590336	16.27563516	24.61275883	2.022590336	16.27563516	0
25.27	0	0	0	78.56238734	-16.34503975	-45.90919873	78.56238734	-16.34503975	-45.90919873	0
25.28	0	0	0	75.02856079	-69.13895903	25.02227479	75.02856079	-69.13895903	25.02227479	0
25.29	0	0	0	22.94845455	-22.36556039	-10.04705775	22.94845455	-22.36556039	-10.04705775	0
25.3	0	0	0	-31.18016924	-66.59451018	-13.14649349	-31.18016924	-66.59451018	-13.14649349	0
25.31	0	0	0	71.63933412	-72.66490795	-34.06766755	71.63933412	-72.66490795	-34.06766755	0
25.32	0	0	0	75.51641661	-12.9691504	-21.62131149	75.51641661	-12.9691504	-21.62131149	0
25.33	0	0	0	-29.04991308	-62.63805171	-30.51916024	-29.04991308	-62.63805171	-30.51916024	0
25.34	0	0	0	75.47754504	-79.93633493	-23.52101851	75.47754504	-79.93633493	-23.52101851	0
25.35	0	0	0	85.44622323	-78.05315129	15.12480982	85.44622323	-78.05315129	15.12480982	0
25.36	0	0	0	-3.935516116	-43.80219522	7.022173414	-3.935516116	-43.80219522	7.022173414	0
25.37	0	0	0	47.67901019	-26.80013572	12.76236264	47.67901019	-26.80013572	12.76236264	0
25.38	0	0	0	-23.06065706	-75.75797895	24.86838272	-23.06065706	-75.75797895	24.86838272	0
25.39	0	0	0	28.27031923	-79.71493105	39.39398782	28.27031923	-79.71493105	39.39398782	0
25.4	0	0	0	1.872309653	-28.12594791	11.17288123	1.872309653	-28.12594791	11.17288123	0
25.41	0	0	0	46.21514439	-48.45087517	-15.89773394	46.21514439	-48.45087517	-15.89773394	0
25.42	0	0	0	60.97054455	-65.39282703	-39.3617524	60.97054455	-65.39282703	-39.3617524	0
25.43	0	0	0	7.663630532	-23.90827545	33.42987915	7.663630532	-23.90827545	33.42987915	0
25.44	0	0	0	-56.50076397	-30.40638678	31.36688381	-56.50076397	-30.40638678	31.36688381	0
25.45	0	0	0	67.32114403	-3.551970773	21.65269212	67.32114403	-3.551970773	21.65269212	0
